Ice Age 3: Dawn of the (2009)Dutch 2Lions-Team MPEG-4 (IPONE) 2Lions-Team 




Vanaf 24 november in de videotheek 



Verenigde Staten
Animatie / Komedie
94 minuten

geregisseerd door Carlos Saldanha en Mike Thurmeier
met de stemmen van John Leguizamo, Denis Leary en Ray Romano

In dit nieuwe ''Ice Age avontuur'' jaagt Scrat nog steeds de beruchte eikel na, terwijl hij ondertussen misschien wel zijn ware liefde vindt. Daarnaast verwachten Manny en Ellie hun eerste baby-mammoet, probeert Sid een eigen familie te creëren door een paar dinosaurus-eieren te pikken en Diego vraagt zich af of hij door zijn zachtaardige vrienden niet te lief wordt voor een sabeltand-tijger. Op een missie om Sid te redden, komt de groep in een mysterieuze ondergrondse wereld terecht, waar ze middenin de tropische wildernis en tussen de dinosaurussen belanden. Hier ontmoeten ze de brute, eenogige dinosaurus-jager Buck de wezel.....

English

After the events of "Ice Age: The Meltdown", life begins to change for Manny and his friends: Scrat is still on the hunt to hold onto his beloved acorn, while finding a possible romance in a female sabre-toothed squirrel named Scratte. Manny and Ellie, having since become an item, are expecting a baby, which leaves Manny anxious to ensure that everything is perfect for when his baby arrives. Diego is fed up with being treated like a house-cat and ponders the notion that he is becoming too laid-back. Sid begins to wish for a family of his own, and so steals some dinosaur eggs which leads to Sid ending up in a strange underground world where his herd must rescue him, while dodging dinosaurs and facing danger left and right, and meeting up with a one-eyed weasel known as Buck who hunts dinosaurs intently




Bron : Retail
Audio : Dutch

Format                           : MPEG-4
Format profile                   : Base Media
Codec ID                         : isom
File size                        : 1.03 GiB
Duration                         : 1h 30mn
Overall bit rate                 : 1 632 Kbps


Video
ID                               : 1
Format                           : MPEG-4 Visual
Format profile                   : Simple@L1
Format settings, BVOP            : No
Format settings, QPel            : No
Format settings, GMC             : No warppoints
Format settings, Matrix          : Default (H.263)
Codec ID                         : 20
Duration                         : 1h 30mn
Bit rate mode                    : Variable
Bit rate                         : 1 499 Kbps
Width                            : 720 pixels
Height                           : 406 pixels
Display aspect ratio             : 16/9
Frame rate mode                  : Constant
Frame rate                       : 25.000 fps
Resolution                       : 24 bits
Colorimetry                      : 4:2:0
Scan type                        : Progressive
Bits/(Pixel*Frame)               : 0.205
Stream size                      : 967 MiB (92%)
Writing library                  : Lavc51.40.4


Audio
ID                               : 2
Format                           : AAC
Format/Info                      : Advanced Audio Codec
Format version                   : Version 4
Format profile                   : LC
Format settings, SBR             : No
Codec ID                         : 40
Duration                         : 1h 30mn
Bit rate mode                    : Variable
Bit rate                         : 128 Kbps
Channel(s)                       : 2 channels
Channel positions                : L R
Sampling rate                    : 48.0 KHz
Resolution                       : 16 bits
Stream size                      : 82.5 MiB (8%)

Genre : Animatie
Komedie 

Weblink : http://www.moviemeter.nl/film/49071 
Weblink : http://www.imdb.com/title/tt1080016

***************************************** 

Brought to you by 
Pioen 
2Lions Team 



meer zien?? 
Kom dan eens kijken op ons forum 
           
http://www.2lions.ons-forum.nl 

2Lions-Team for all your Dutch MOVIES and more 

***************************************** 

DON T HIT AND RUN Niet gelijk afhaken als de film binnen is blijf seeden.